# xmcd
#
# Track frame offsets:
#	301
#	21522
#	39181
#	65874
#	87183
#	104011
#	114613
#	134396
#	152439
#	171158
#
# Disc length: 2617 seconds
#
# Revision: 0
# Processed by: cddbd v1.5.2PL0 Copyright (c) Steve Scherf et al.
# Submitted via: audiograbber 1.83.01
#
DISCID=870a350a
DTITLE=Mike Bloomfield - Knockin' My self out
DYEAR=1999
DGENRE=
TTITLE0=Women lovin' each other
TTITLE1=Wings of an angel
TTITLE2=Knockin' myself out
TTITLE3=Junko partner
TTITLE4=Cherry red
TTITLE5=RX for the blues
TTITLE6=Walkin' the floor
TTITLE7=Hully gully
TTITLE8=Don't you lie to me
TTITLE9=You must have Jesus
EXTD=
EXTT0=
EXTT1=
EXTT2=
EXTT3=
EXTT4=
EXTT5=
EXTT6=
EXTT7=
EXTT8=
EXTT9=
PLAYORDER=
